# xmcd
#
# Track frame offsets:
#   150
#   13853
#   34407
#   53036
#   76386
#   96818
#   111928
#   127539
#   149198
#   164834
#   189506
#   212876
#   232735
#   246272
#   263811
#   281869
#   298866
#   309722
#   339724
#
# Disc length: 4736 seconds
#
# Revision: 0
# Processed by: cddbd v1.5.1PL0 Copyright (c) Steve Scherf et al.
# Submitted via: Media_Universe 3.0
#
DISCID=29127e13
DTITLE=Billy Ray Cyrus - Billy Ray Cyrus
DYEAR=1900
DGENRE=Country
TTITLE0=Crazy Mama
TTITLE1=The American Dream
TTITLE2=Back To Memphis
TTITLE3=Call Me Daddy
TTITLE4=Casualty Of Love
TTITLE5=Crazy Bout You Baby
TTITLE6=Everywhere I Wanna Be
TTITLE7=Hard To Leave
TTITLE8=Hey Elvis
TTITLE9=How Much
TTITLE10=Need A Little Help
TTITLE11=Shot Full Of Love
TTITLE12=She Don't Love Me (she don't hate me)
TTITLE13=You Won't Be Lonely Now
TTITLE14=The Way It Is
TTITLE15=Could've Been Me
TTITLE16=Tenntucky
TTITLE17=Truth Is I Lied
TTITLE18=She's Not Crying Anymore
EXTD=
EXTT0=
EXTT1=
EXTT2=
EXTT3=
EXTT4=
EXTT5=
EXTT6=
EXTT7=
EXTT8=
EXTT9=
EXTT10=
EXTT11=
EXTT12=
EXTT13=
EXTT14=
EXTT15=
EXTT16=
EXTT17=
EXTT18=
PLAYORDER=
